<?xml version="1.0" encoding="UTF-8"?>
<svg xmlns="http://www.w3.org/2000/svg" xmlns:xlink="http://www.w3.org/1999/xlink" width="375pt" height="374.999991pt" viewBox="0 0 375 374.999991" version="1.2">
<g id="surface1">
<rect x="0" y="0" width="375" height="374.999991" style="fill:rgb(100%,100%,100%);fill-opacity:1;stroke:none;"/>
<rect x="0" y="0" width="375" height="374.999991" style="fill:rgb(100%,100%,100%);fill-opacity:1;stroke:none;"/>
<rect x="0" y="0" width="375" height="374.999991" style="fill:rgb(100%,100%,100%);fill-opacity:1;stroke:none;"/>
<path style=" stroke:none;fill-rule:nonzero;fill:rgb(0%,50.19989%,21.569824%);fill-opacity:1;" d="M 251.148438 160.675781 C 251.148438 161.71875 251.125 162.761719 251.074219 163.800781 C 251.023438 164.839844 250.945312 165.878906 250.84375 166.917969 C 250.742188 167.953125 250.613281 168.988281 250.460938 170.019531 C 250.308594 171.046875 250.128906 172.074219 249.925781 173.097656 C 249.722656 174.117188 249.496094 175.132812 249.242188 176.144531 C 248.988281 177.15625 248.710938 178.160156 248.410156 179.15625 C 248.105469 180.152344 247.78125 181.140625 247.429688 182.121094 C 247.078125 183.101562 246.703125 184.074219 246.304688 185.039062 C 245.90625 186 245.484375 186.953125 245.039062 187.894531 C 244.59375 188.835938 244.125 189.765625 243.632812 190.683594 C 243.140625 191.601562 242.628906 192.507812 242.09375 193.402344 C 241.558594 194.296875 241 195.175781 240.421875 196.042969 C 239.84375 196.910156 239.242188 197.761719 238.621094 198.597656 C 238.003906 199.433594 237.363281 200.253906 236.699219 201.058594 C 236.039062 201.867188 235.359375 202.65625 234.660156 203.425781 C 233.960938 204.199219 233.242188 204.953125 232.503906 205.6875 C 231.769531 206.425781 231.015625 207.144531 230.242188 207.84375 C 229.46875 208.542969 228.683594 209.222656 227.875 209.882812 C 227.070312 210.546875 226.25 211.1875 225.414062 211.804688 C 224.578125 212.425781 223.726562 213.027344 222.859375 213.605469 C 221.992188 214.183594 221.113281 214.742188 220.21875 215.277344 C 219.324219 215.8125 218.417969 216.324219 217.5 216.816406 C 216.582031 217.308594 215.652344 217.777344 214.710938 218.222656 C 213.769531 218.667969 212.816406 219.089844 211.855469 219.488281 C 210.890625 219.886719 209.917969 220.261719 208.9375 220.613281 C 207.957031 220.964844 206.96875 221.289062 205.972656 221.59375 C 204.976562 221.894531 203.972656 222.171875 202.960938 222.425781 C 201.949219 222.679688 200.933594 222.90625 199.914062 223.109375 C 198.890625 223.3125 197.863281 223.492188 196.832031 223.644531 C 195.804688 223.796875 194.769531 223.925781 193.734375 224.027344 C 192.695312 224.128906 191.65625 224.207031 190.617188 224.257812 C 189.578125 224.308594 188.535156 224.332031 187.492188 224.332031 C 186.453125 224.332031 185.410156 224.308594 184.371094 224.257812 C 183.328125 224.207031 182.289062 224.128906 181.253906 224.027344 C 180.21875 223.925781 179.183594 223.796875 178.152344 223.644531 C 177.121094 223.492188 176.097656 223.3125 175.074219 223.109375 C 174.054688 222.90625 173.035156 222.679688 172.027344 222.425781 C 171.015625 222.171875 170.011719 221.894531 169.015625 221.59375 C 168.019531 221.289062 167.03125 220.964844 166.046875 220.613281 C 165.066406 220.261719 164.097656 219.886719 163.132812 219.488281 C 162.171875 219.089844 161.21875 218.667969 160.277344 218.222656 C 159.335938 217.777344 158.40625 217.308594 157.484375 216.816406 C 156.566406 216.324219 155.660156 215.8125 154.769531 215.277344 C 153.875 214.742188 152.996094 214.183594 152.128906 213.605469 C 151.261719 213.027344 150.410156 212.425781 149.574219 211.804688 C 148.738281 211.1875 147.914062 210.546875 147.109375 209.882812 C 146.304688 209.222656 145.515625 208.542969 144.746094 207.84375 C 143.972656 207.144531 143.21875 206.425781 142.480469 205.6875 C 141.746094 204.953125 141.027344 204.199219 140.328125 203.425781 C 139.628906 202.65625 138.949219 201.867188 138.285156 201.058594 C 137.625 200.253906 136.984375 199.433594 136.363281 198.597656 C 135.742188 197.761719 135.144531 196.910156 134.566406 196.042969 C 133.988281 195.175781 133.429688 194.296875 132.894531 193.402344 C 132.359375 192.507812 131.84375 191.601562 131.355469 190.683594 C 130.863281 189.765625 130.394531 188.835938 129.949219 187.894531 C 129.503906 186.953125 129.082031 186 128.683594 185.039062 C 128.285156 184.074219 127.910156 183.101562 127.558594 182.121094 C 127.207031 181.140625 126.878906 180.152344 126.578125 179.15625 C 126.277344 178.160156 126 177.15625 125.746094 176.144531 C 125.492188 175.132812 125.265625 174.117188 125.058594 173.097656 C 124.855469 172.074219 124.679688 171.046875 124.527344 170.019531 C 124.375 168.988281 124.246094 167.953125 124.144531 166.917969 C 124.042969 165.878906 123.964844 164.839844 123.914062 163.800781 C 123.863281 162.761719 123.835938 161.71875 123.835938 160.675781 C 123.835938 159.636719 123.863281 158.59375 123.914062 157.554688 C 123.964844 156.511719 124.042969 155.476562 124.144531 154.4375 C 124.246094 153.402344 124.375 152.367188 124.527344 151.335938 C 124.679688 150.304688 124.855469 149.28125 125.058594 148.257812 C 125.265625 147.238281 125.492188 146.21875 125.746094 145.210938 C 126 144.199219 126.277344 143.195312 126.578125 142.199219 C 126.878906 141.203125 127.207031 140.214844 127.558594 139.230469 C 127.910156 138.25 128.285156 137.28125 128.683594 136.316406 C 129.082031 135.355469 129.503906 134.402344 129.949219 133.460938 C 130.394531 132.519531 130.863281 131.589844 131.355469 130.671875 C 131.84375 129.75 132.359375 128.84375 132.894531 127.953125 C 133.429688 127.058594 133.988281 126.179688 134.566406 125.3125 C 135.144531 124.445312 135.742188 123.59375 136.363281 122.757812 C 136.984375 121.921875 137.625 121.097656 138.285156 120.292969 C 138.949219 119.488281 139.628906 118.699219 140.328125 117.929688 C 141.027344 117.15625 141.746094 116.402344 142.480469 115.664062 C 143.21875 114.929688 143.972656 114.210938 144.746094 113.511719 C 145.515625 112.8125 146.304688 112.132812 147.109375 111.46875 C 147.914062 110.808594 148.738281 110.167969 149.574219 109.546875 C 150.410156 108.925781 151.261719 108.328125 152.128906 107.75 C 152.996094 107.171875 153.875 106.613281 154.769531 106.078125 C 155.660156 105.542969 156.566406 105.027344 157.484375 104.539062 C 158.40625 104.046875 159.335938 103.578125 160.277344 103.132812 C 161.21875 102.6875 162.171875 102.265625 163.132812 101.867188 C 164.097656 101.46875 165.066406 101.09375 166.046875 100.742188 C 167.03125 100.390625 168.019531 100.066406 169.015625 99.761719 C 170.011719 99.460938 171.015625 99.183594 172.027344 98.929688 C 173.035156 98.675781 174.054688 98.449219 175.074219 98.246094 C 176.097656 98.039062 177.121094 97.863281 178.152344 97.710938 C 179.183594 97.558594 180.21875 97.429688 181.253906 97.328125 C 182.289062 97.226562 183.328125 97.148438 184.371094 97.097656 C 185.410156 97.046875 186.453125 97.019531 187.492188 97.019531 C 188.535156 97.019531 189.578125 97.046875 190.617188 97.097656 C 191.65625 97.148438 192.695312 97.226562 193.734375 97.328125 C 194.769531 97.429688 195.804688 97.558594 196.832031 97.710938 C 197.863281 97.863281 198.890625 98.039062 199.914062 98.246094 C 200.933594 98.449219 201.949219 98.675781 202.960938 98.929688 C 203.972656 99.183594 204.976562 99.460938 205.972656 99.761719 C 206.96875 100.066406 207.957031 100.390625 208.9375 100.742188 C 209.917969 101.09375 210.890625 101.46875 211.855469 101.867188 C 212.816406 102.265625 213.769531 102.6875 214.710938 103.132812 C 215.652344 103.578125 216.582031 104.046875 217.5 104.539062 C 218.417969 105.027344 219.324219 105.542969 220.21875 106.078125 C 221.113281 106.613281 221.992188 107.171875 222.859375 107.75 C 223.726562 108.328125 224.578125 108.925781 225.414062 109.546875 C 226.25 110.167969 227.070312 110.808594 227.875 111.46875 C 228.683594 112.132812 229.46875 112.8125 230.242188 113.511719 C 231.015625 114.210938 231.769531 114.929688 232.503906 115.664062 C 233.242188 116.402344 233.960938 117.15625 234.660156 117.929688 C 235.359375 118.699219 236.039062 119.488281 236.699219 120.292969 C 237.363281 121.097656 238.003906 121.921875 238.621094 122.757812 C 239.242188 123.59375 239.84375 124.445312 240.421875 125.3125 C 241 126.179688 241.558594 127.058594 242.09375 127.953125 C 242.628906 128.84375 243.140625 129.75 243.632812 130.671875 C 244.125 131.589844 244.59375 132.519531 245.039062 133.460938 C 245.484375 134.402344 245.90625 135.355469 246.304688 136.316406 C 246.703125 137.28125 247.078125 138.25 247.429688 139.230469 C 247.78125 140.214844 248.105469 141.203125 248.410156 142.199219 C 248.710938 143.195312 248.988281 144.199219 249.242188 145.210938 C 249.496094 146.21875 249.722656 147.238281 249.925781 148.257812 C 250.128906 149.28125 250.308594 150.304688 250.460938 151.335938 C 250.613281 152.367188 250.742188 153.402344 250.84375 154.4375 C 250.945312 155.476562 251.023438 156.511719 251.074219 157.554688 C 251.125 158.59375 251.148438 159.636719 251.148438 160.675781 Z M 251.148438 160.675781 "/>
<path style=" stroke:none;fill-rule:nonzero;fill:rgb(100%,100%,100%);fill-opacity:1;" d="M 205.679688 153.855469 C 204.484375 153.863281 203.371094 154.167969 202.335938 154.765625 C 202.128906 154.433594 201.894531 154.117188 201.628906 153.824219 C 201.367188 153.53125 201.082031 153.265625 200.769531 153.023438 C 200.460938 152.777344 200.132812 152.566406 199.785156 152.378906 C 199.4375 152.195312 199.078125 152.039062 198.703125 151.917969 C 198.328125 151.796875 197.945312 151.707031 197.554688 151.652344 C 197.164062 151.597656 196.773438 151.574219 196.378906 151.589844 C 195.988281 151.601562 195.597656 151.648438 195.210938 151.730469 C 194.828125 151.8125 194.453125 151.925781 194.085938 152.074219 C 194.679688 151.503906 195.238281 150.90625 195.769531 150.273438 C 196.296875 149.644531 196.789062 148.984375 197.242188 148.300781 C 197.699219 147.617188 198.117188 146.910156 198.496094 146.179688 C 198.878906 145.449219 199.214844 144.703125 199.515625 143.933594 C 199.8125 143.167969 200.066406 142.386719 200.28125 141.59375 C 200.492188 140.800781 200.664062 139.996094 200.789062 139.183594 C 200.914062 138.371094 200.996094 137.550781 201.035156 136.730469 C 201.070312 135.910156 201.0625 135.085938 201.011719 134.265625 C 200.957031 133.445312 200.859375 132.628906 200.71875 131.820312 C 200.578125 131.007812 200.394531 130.210938 200.167969 129.417969 C 199.9375 128.628906 199.667969 127.851562 199.355469 127.09375 C 199.042969 126.332031 198.691406 125.589844 198.296875 124.867188 C 197.90625 124.144531 197.472656 123.445312 197.003906 122.769531 C 196.535156 122.09375 196.03125 121.445312 195.492188 120.824219 C 194.953125 120.203125 194.378906 119.613281 193.777344 119.054688 C 193.171875 118.496094 192.539062 117.972656 191.878906 117.484375 C 191.21875 116.992188 190.535156 116.539062 189.824219 116.125 C 189.113281 115.710938 188.382812 115.332031 187.632812 114.996094 C 186.882812 114.660156 186.117188 114.367188 185.332031 114.113281 C 184.550781 113.863281 183.757812 113.652344 182.949219 113.488281 C 182.144531 113.320312 181.332031 113.199219 180.515625 113.121094 C 179.695312 113.042969 178.875 113.007812 178.050781 113.019531 C 177.230469 113.03125 176.410156 113.085938 175.59375 113.1875 C 174.777344 113.289062 173.96875 113.433594 173.167969 113.621094 C 172.367188 113.808594 171.578125 114.039062 170.804688 114.3125 C 170.027344 114.585938 169.269531 114.902344 168.527344 115.257812 C 167.789062 115.617188 167.066406 116.011719 166.371094 116.445312 C 165.671875 116.882812 165 117.351562 164.351562 117.859375 C 163.703125 118.367188 163.085938 118.910156 162.5 119.484375 C 161.910156 120.058594 161.355469 120.664062 160.832031 121.300781 C 160.308594 121.933594 159.824219 122.597656 159.375 123.285156 C 158.921875 123.972656 158.511719 124.683594 158.136719 125.417969 C 157.765625 126.148438 157.433594 126.902344 157.140625 127.671875 C 156.851562 128.441406 156.601562 129.222656 156.394531 130.019531 C 156.1875 130.816406 156.027344 131.621094 155.90625 132.433594 C 155.789062 133.246094 155.714844 134.066406 155.683594 134.886719 C 155.65625 135.710938 155.667969 136.53125 155.730469 137.351562 C 155.789062 138.171875 155.890625 138.988281 156.039062 139.796875 C 156.1875 140.605469 156.378906 141.402344 156.613281 142.191406 C 156.847656 142.980469 157.125 143.753906 157.445312 144.511719 C 157.765625 145.269531 158.125 146.007812 158.523438 146.726562 C 158.921875 147.445312 159.359375 148.140625 159.832031 148.8125 C 160.308594 149.484375 160.820312 150.128906 161.363281 150.746094 C 161.910156 151.359375 162.484375 151.945312 163.09375 152.5 C 163.703125 153.050781 164.339844 153.570312 165.003906 154.054688 C 165.667969 154.539062 166.359375 154.988281 167.070312 155.394531 C 167.785156 155.804688 168.519531 156.175781 169.273438 156.503906 C 170.023438 156.832031 170.792969 157.121094 171.578125 157.367188 L 171.578125 158.820312 C 170.847656 158.550781 170.089844 158.410156 169.304688 158.402344 C 168.859375 158.402344 168.414062 158.449219 167.976562 158.535156 C 167.535156 158.621094 167.109375 158.75 166.695312 158.921875 C 166.28125 159.09375 165.890625 159.304688 165.515625 159.554688 C 165.144531 159.800781 164.800781 160.085938 164.484375 160.402344 C 164.167969 160.71875 163.882812 161.0625 163.636719 161.433594 C 163.386719 161.808594 163.175781 162.199219 163.003906 162.613281 C 162.832031 163.027344 162.703125 163.453125 162.617188 163.894531 C 162.53125 164.332031 162.484375 164.777344 162.484375 165.222656 L 162.484375 181.136719 C 162.484375 181.957031 162.527344 182.773438 162.605469 183.589844 C 162.6875 184.40625 162.804688 185.214844 162.964844 186.015625 C 163.125 186.820312 163.324219 187.613281 163.5625 188.398438 C 163.800781 189.179688 164.074219 189.953125 164.390625 190.707031 C 164.703125 191.464844 165.050781 192.203125 165.4375 192.925781 C 165.824219 193.648438 166.246094 194.351562 166.699219 195.03125 C 167.15625 195.710938 167.644531 196.371094 168.164062 197.003906 C 168.683594 197.636719 169.230469 198.242188 169.808594 198.820312 C 170.390625 199.402344 170.996094 199.949219 171.628906 200.46875 C 172.261719 200.988281 172.917969 201.476562 173.601562 201.929688 C 174.28125 202.386719 174.984375 202.808594 175.703125 203.191406 C 176.425781 203.578125 177.167969 203.929688 177.921875 204.242188 C 178.679688 204.554688 179.449219 204.832031 180.234375 205.070312 C 181.019531 205.308594 181.8125 205.503906 182.613281 205.664062 C 183.417969 205.824219 184.226562 205.945312 185.042969 206.027344 C 185.859375 206.105469 186.675781 206.144531 187.492188 206.144531 C 188.3125 206.144531 189.128906 206.105469 189.945312 206.027344 C 190.761719 205.945312 191.570312 205.824219 192.371094 205.664062 C 193.175781 205.503906 193.96875 205.308594 194.753906 205.070312 C 195.535156 204.832031 196.308594 204.554688 197.0625 204.242188 C 197.820312 203.929688 198.558594 203.578125 199.28125 203.191406 C 200.003906 202.808594 200.707031 202.386719 201.386719 201.929688 C 202.066406 201.476562 202.726562 200.988281 203.359375 200.46875 C 203.992188 199.949219 204.597656 199.402344 205.175781 198.820312 C 205.757812 198.242188 206.304688 197.636719 206.824219 197.003906 C 207.34375 196.371094 207.832031 195.710938 208.285156 195.03125 C 208.742188 194.351562 209.164062 193.648438 209.546875 192.925781 C 209.933594 192.203125 210.285156 191.464844 210.597656 190.707031 C 210.910156 189.953125 211.1875 189.179688 211.425781 188.398438 C 211.664062 187.613281 211.859375 186.820312 212.019531 186.015625 C 212.179688 185.214844 212.300781 184.40625 212.382812 183.589844 C 212.460938 182.773438 212.5 181.957031 212.5 181.136719 L 212.5 160.675781 C 212.5 160.230469 212.457031 159.785156 212.371094 159.347656 C 212.28125 158.90625 212.152344 158.480469 211.980469 158.066406 C 211.8125 157.652344 211.601562 157.261719 211.351562 156.886719 C 211.101562 156.515625 210.820312 156.171875 210.503906 155.855469 C 210.1875 155.539062 209.84375 155.253906 209.46875 155.007812 C 209.097656 154.757812 208.703125 154.546875 208.292969 154.375 C 207.878906 154.203125 207.449219 154.074219 207.011719 153.988281 C 206.574219 153.902344 206.128906 153.855469 205.679688 153.855469 Z M 160.210938 135.667969 C 160.210938 134.902344 160.257812 134.140625 160.351562 133.382812 C 160.445312 132.621094 160.585938 131.871094 160.777344 131.128906 C 160.964844 130.390625 161.203125 129.664062 161.480469 128.949219 C 161.761719 128.238281 162.085938 127.546875 162.457031 126.875 C 162.824219 126.207031 163.234375 125.558594 163.683594 124.941406 C 164.132812 124.320312 164.621094 123.734375 165.144531 123.175781 C 165.667969 122.617188 166.222656 122.09375 166.8125 121.609375 C 167.402344 121.121094 168.023438 120.671875 168.667969 120.261719 C 169.316406 119.851562 169.984375 119.484375 170.679688 119.160156 C 171.371094 118.835938 172.082031 118.554688 172.808594 118.320312 C 173.539062 118.085938 174.277344 117.898438 175.03125 117.753906 C 175.78125 117.613281 176.539062 117.519531 177.304688 117.472656 C 178.070312 117.425781 178.832031 117.429688 179.597656 117.480469 C 180.359375 117.53125 181.117188 117.628906 181.867188 117.773438 C 182.621094 117.921875 183.359375 118.113281 184.085938 118.351562 C 184.8125 118.589844 185.523438 118.875 186.210938 119.203125 C 186.902344 119.53125 187.570312 119.902344 188.214844 120.316406 C 188.859375 120.730469 189.476562 121.179688 190.0625 121.671875 C 190.652344 122.164062 191.203125 122.6875 191.726562 123.25 C 192.246094 123.808594 192.730469 124.402344 193.175781 125.023438 C 193.621094 125.644531 194.027344 126.292969 194.390625 126.964844 C 194.757812 127.636719 195.078125 128.332031 195.355469 129.046875 C 195.632812 129.757812 195.863281 130.488281 196.046875 131.230469 C 196.234375 131.972656 196.371094 132.722656 196.460938 133.484375 C 196.550781 134.242188 196.59375 135.003906 196.585938 135.769531 C 196.582031 136.535156 196.527344 137.296875 196.425781 138.054688 C 196.320312 138.816406 196.171875 139.5625 195.976562 140.304688 C 195.777344 141.042969 195.535156 141.765625 195.25 142.476562 C 194.960938 143.183594 194.628906 143.875 194.253906 144.539062 C 193.878906 145.207031 193.464844 145.847656 193.007812 146.464844 C 192.550781 147.078125 192.058594 147.660156 191.527344 148.214844 C 191 148.765625 190.4375 149.285156 189.84375 149.765625 C 189.101562 149.472656 188.332031 149.320312 187.535156 149.316406 C 186.738281 149.308594 185.964844 149.445312 185.21875 149.726562 L 185.21875 147.453125 C 185.648438 147.207031 186.066406 146.9375 186.464844 146.640625 C 186.867188 146.347656 187.25 146.035156 187.617188 145.699219 C 187.980469 145.363281 188.328125 145.007812 188.65625 144.636719 C 188.984375 144.261719 189.289062 143.871094 189.574219 143.464844 C 189.859375 143.058594 190.121094 142.636719 190.359375 142.203125 C 190.597656 141.769531 190.8125 141.320312 191.003906 140.863281 C 191.191406 140.402344 191.355469 139.9375 191.496094 139.457031 C 191.632812 138.980469 191.746094 138.5 191.832031 138.011719 C 191.917969 137.523438 191.980469 137.03125 192.011719 136.535156 C 192.042969 136.039062 192.050781 135.542969 192.027344 135.046875 C 192.003906 134.550781 191.957031 134.058594 191.882812 133.566406 C 191.804688 133.074219 191.703125 132.589844 191.574219 132.113281 C 191.445312 131.632812 191.292969 131.160156 191.113281 130.699219 C 190.933594 130.234375 190.726562 129.785156 190.5 129.34375 C 190.269531 128.902344 190.015625 128.476562 189.742188 128.0625 C 189.464844 127.652344 189.167969 127.253906 188.847656 126.875 C 188.53125 126.492188 188.191406 126.132812 187.832031 125.789062 C 187.472656 125.445312 187.097656 125.121094 186.703125 124.820312 C 186.308594 124.519531 185.902344 124.238281 185.476562 123.980469 C 185.050781 123.722656 184.613281 123.488281 184.164062 123.28125 C 183.714844 123.070312 183.253906 122.886719 182.785156 122.726562 C 182.3125 122.566406 181.835938 122.433594 181.351562 122.324219 C 180.867188 122.21875 180.378906 122.136719 179.886719 122.082031 C 179.390625 122.027344 178.894531 122 178.398438 122 C 177.902344 122 177.410156 122.027344 176.914062 122.082031 C 176.421875 122.136719 175.933594 122.21875 175.449219 122.324219 C 174.960938 122.433594 174.484375 122.566406 174.015625 122.726562 C 173.546875 122.886719 173.085938 123.070312 172.636719 123.28125 C 172.183594 123.488281 171.746094 123.722656 171.324219 123.980469 C 170.898438 124.238281 170.488281 124.519531 170.097656 124.820312 C 169.703125 125.121094 169.324219 125.445312 168.96875 125.789062 C 168.609375 126.132812 168.269531 126.492188 167.949219 126.875 C 167.632812 127.253906 167.332031 127.652344 167.058594 128.0625 C 166.78125 128.476562 166.53125 128.902344 166.300781 129.34375 C 166.070312 129.785156 165.867188 130.234375 165.6875 130.699219 C 165.507812 131.160156 165.351562 131.632812 165.222656 132.113281 C 165.09375 132.589844 164.992188 133.074219 164.917969 133.566406 C 164.84375 134.058594 164.792969 134.550781 164.773438 135.046875 C 164.75 135.542969 164.757812 136.039062 164.789062 136.535156 C 164.820312 137.03125 164.878906 137.523438 164.964844 138.011719 C 165.050781 138.5 165.164062 138.980469 165.304688 139.457031 C 165.441406 139.9375 165.609375 140.402344 165.796875 140.863281 C 165.988281 141.320312 166.203125 141.769531 166.441406 142.203125 C 166.679688 142.636719 166.941406 143.058594 167.226562 143.464844 C 167.511719 143.871094 167.816406 144.261719 168.144531 144.636719 C 168.472656 145.007812 168.816406 145.363281 169.183594 145.699219 C 169.550781 146.035156 169.933594 146.347656 170.335938 146.640625 C 170.734375 146.9375 171.148438 147.207031 171.578125 147.453125 L 171.578125 152.539062 C 170.746094 152.195312 169.945312 151.792969 169.171875 151.332031 C 168.398438 150.875 167.664062 150.359375 166.964844 149.789062 C 166.269531 149.222656 165.617188 148.605469 165.007812 147.941406 C 164.402344 147.273438 163.847656 146.570312 163.34375 145.824219 C 162.839844 145.078125 162.394531 144.296875 162.007812 143.484375 C 161.621094 142.675781 161.292969 141.839844 161.027344 140.976562 C 160.761719 140.117188 160.5625 139.242188 160.425781 138.355469 C 160.289062 137.464844 160.21875 136.570312 160.210938 135.667969 Z M 171.578125 137.941406 L 171.578125 141.679688 C 171.195312 141.242188 170.855469 140.773438 170.5625 140.273438 C 170.265625 139.773438 170.023438 139.246094 169.828125 138.699219 C 169.632812 138.152344 169.492188 137.589844 169.40625 137.015625 C 169.320312 136.441406 169.289062 135.863281 169.3125 135.285156 C 169.339844 134.703125 169.417969 134.128906 169.550781 133.5625 C 169.6875 133 169.871094 132.453125 170.113281 131.921875 C 170.351562 131.390625 170.636719 130.890625 170.972656 130.414062 C 171.308594 129.941406 171.6875 129.503906 172.105469 129.101562 C 172.523438 128.699219 172.976562 128.339844 173.464844 128.023438 C 173.953125 127.707031 174.46875 127.441406 175.007812 127.226562 C 175.546875 127.007812 176.101562 126.84375 176.671875 126.734375 C 177.242188 126.625 177.820312 126.570312 178.398438 126.570312 C 178.980469 126.570312 179.558594 126.625 180.128906 126.734375 C 180.699219 126.84375 181.253906 127.007812 181.792969 127.226562 C 182.332031 127.441406 182.84375 127.707031 183.332031 128.023438 C 183.820312 128.339844 184.273438 128.699219 184.695312 129.101562 C 185.113281 129.503906 185.492188 129.941406 185.828125 130.414062 C 186.160156 130.890625 186.449219 131.390625 186.6875 131.921875 C 186.925781 132.453125 187.113281 133 187.25 133.5625 C 187.382812 134.128906 187.460938 134.703125 187.484375 135.285156 C 187.511719 135.863281 187.480469 136.441406 187.390625 137.015625 C 187.304688 137.589844 187.164062 138.152344 186.972656 138.699219 C 186.777344 139.246094 186.53125 139.773438 186.238281 140.273438 C 185.945312 140.773438 185.605469 141.242188 185.21875 141.679688 L 185.21875 137.941406 C 185.21875 137.496094 185.171875 137.054688 185.082031 136.613281 C 184.996094 136.175781 184.863281 135.75 184.691406 135.339844 C 184.519531 134.925781 184.308594 134.535156 184.058594 134.160156 C 183.8125 133.789062 183.527344 133.445312 183.210938 133.128906 C 182.894531 132.8125 182.550781 132.53125 182.179688 132.28125 C 181.808594 132.035156 181.417969 131.824219 181.003906 131.652344 C 180.59375 131.480469 180.167969 131.347656 179.726562 131.257812 C 179.289062 131.171875 178.847656 131.125 178.398438 131.121094 C 177.953125 131.121094 177.507812 131.167969 177.070312 131.253906 C 176.628906 131.339844 176.203125 131.46875 175.789062 131.640625 C 175.375 131.8125 174.984375 132.023438 174.609375 132.273438 C 174.238281 132.519531 173.894531 132.804688 173.578125 133.121094 C 173.261719 133.4375 172.976562 133.78125 172.730469 134.152344 C 172.480469 134.527344 172.269531 134.917969 172.097656 135.332031 C 171.925781 135.746094 171.796875 136.171875 171.710938 136.613281 C 171.625 137.050781 171.578125 137.496094 171.578125 137.941406 Z M 207.953125 181.136719 C 207.953125 181.808594 207.921875 182.476562 207.855469 183.144531 C 207.789062 183.8125 207.691406 184.472656 207.5625 185.128906 C 207.429688 185.789062 207.269531 186.4375 207.074219 187.078125 C 206.878906 187.71875 206.652344 188.347656 206.398438 188.96875 C 206.140625 189.585938 205.855469 190.191406 205.539062 190.785156 C 205.222656 191.375 204.878906 191.949219 204.507812 192.503906 C 204.132812 193.0625 203.734375 193.601562 203.308594 194.117188 C 202.886719 194.636719 202.433594 195.132812 201.960938 195.605469 C 201.488281 196.082031 200.992188 196.53125 200.472656 196.953125 C 199.957031 197.378906 199.417969 197.777344 198.859375 198.152344 C 198.304688 198.523438 197.730469 198.867188 197.140625 199.183594 C 196.546875 199.5 195.941406 199.785156 195.324219 200.042969 C 194.703125 200.296875 194.074219 200.523438 193.433594 200.71875 C 192.792969 200.914062 192.140625 201.074219 191.484375 201.207031 C 190.828125 201.335938 190.164062 201.433594 189.5 201.5 C 188.832031 201.566406 188.164062 201.597656 187.492188 201.597656 C 186.824219 201.597656 186.15625 201.566406 185.488281 201.5 C 184.820312 201.433594 184.160156 201.335938 183.5 201.207031 C 182.84375 201.074219 182.195312 200.914062 181.554688 200.71875 C 180.914062 200.523438 180.28125 200.296875 179.664062 200.042969 C 179.042969 199.785156 178.4375 199.5 177.847656 199.183594 C 177.257812 198.867188 176.683594 198.523438 176.125 198.152344 C 175.570312 197.777344 175.03125 197.378906 174.511719 196.953125 C 173.996094 196.53125 173.5 196.082031 173.027344 195.605469 C 172.550781 195.132812 172.101562 194.636719 171.675781 194.117188 C 171.25 193.601562 170.851562 193.0625 170.480469 192.503906 C 170.109375 191.949219 169.765625 191.375 169.449219 190.785156 C 169.132812 190.191406 168.847656 189.585938 168.589844 188.96875 C 168.332031 188.347656 168.109375 187.71875 167.914062 187.078125 C 167.71875 186.4375 167.554688 185.789062 167.425781 185.128906 C 167.296875 184.472656 167.195312 183.8125 167.132812 183.144531 C 167.066406 182.476562 167.03125 181.808594 167.03125 181.136719 L 167.03125 165.222656 C 167.03125 164.921875 167.089844 164.632812 167.207031 164.355469 C 167.320312 164.074219 167.484375 163.828125 167.699219 163.617188 C 167.910156 163.402344 168.15625 163.238281 168.4375 163.125 C 168.714844 163.007812 169.003906 162.949219 169.304688 162.949219 C 169.609375 162.949219 169.898438 163.007812 170.175781 163.125 C 170.453125 163.238281 170.699219 163.402344 170.914062 163.617188 C 171.125 163.828125 171.292969 164.074219 171.40625 164.355469 C 171.523438 164.632812 171.578125 164.921875 171.578125 165.222656 L 171.578125 172.042969 C 171.578125 172.347656 171.636719 172.636719 171.753906 172.914062 C 171.867188 173.191406 172.03125 173.4375 172.246094 173.652344 C 172.457031 173.867188 172.703125 174.03125 172.984375 174.144531 C 173.261719 174.261719 173.550781 174.316406 173.851562 174.316406 C 174.15625 174.316406 174.445312 174.261719 174.722656 174.144531 C 175 174.03125 175.246094 173.867188 175.460938 173.652344 C 175.671875 173.4375 175.839844 173.191406 175.953125 172.914062 C 176.070312 172.636719 176.125 172.347656 176.125 172.042969 L 176.125 137.941406 C 176.125 137.640625 176.183594 137.351562 176.300781 137.074219 C 176.414062 136.792969 176.578125 136.546875 176.792969 136.335938 C 177.003906 136.121094 177.25 135.957031 177.53125 135.84375 C 177.808594 135.726562 178.097656 135.667969 178.398438 135.667969 C 179.039062 135.667969 179.582031 135.902344 180.019531 136.367188 C 180.460938 136.800781 180.679688 137.324219 180.671875 137.941406 L 180.671875 162.949219 C 180.671875 163.253906 180.730469 163.542969 180.847656 163.820312 C 180.960938 164.097656 181.125 164.34375 181.339844 164.558594 C 181.550781 164.773438 181.796875 164.9375 182.078125 165.050781 C 182.355469 165.167969 182.644531 165.222656 182.945312 165.222656 C 183.25 165.222656 183.539062 165.167969 183.816406 165.050781 C 184.09375 164.9375 184.339844 164.773438 184.554688 164.558594 C 184.765625 164.34375 184.933594 164.097656 185.046875 163.820312 C 185.164062 163.542969 185.21875 163.253906 185.21875 162.949219 L 185.21875 156.128906 C 185.21875 155.828125 185.277344 155.539062 185.394531 155.261719 C 185.507812 154.980469 185.671875 154.734375 185.886719 154.523438 C 186.097656 154.308594 186.34375 154.144531 186.625 154.03125 C 186.902344 153.914062 187.191406 153.855469 187.492188 153.855469 C 187.796875 153.855469 188.085938 153.914062 188.363281 154.03125 C 188.640625 154.144531 188.886719 154.308594 189.101562 154.523438 C 189.3125 154.734375 189.480469 154.980469 189.59375 155.261719 C 189.710938 155.539062 189.765625 155.828125 189.765625 156.128906 L 189.765625 165.222656 C 189.765625 165.527344 189.824219 165.816406 189.941406 166.09375 C 190.054688 166.371094 190.21875 166.617188 190.433594 166.832031 C 190.644531 167.046875 190.890625 167.210938 191.171875 167.324219 C 191.449219 167.441406 191.738281 167.496094 192.039062 167.496094 C 192.34375 167.496094 192.632812 167.441406 192.910156 167.324219 C 193.1875 167.210938 193.433594 167.046875 193.648438 166.832031 C 193.859375 166.617188 194.027344 166.371094 194.140625 166.09375 C 194.257812 165.816406 194.3125 165.527344 194.3125 165.222656 L 194.3125 158.402344 C 194.3125 158.101562 194.371094 157.8125 194.488281 157.535156 C 194.601562 157.253906 194.765625 157.007812 194.980469 156.796875 C 195.191406 156.582031 195.4375 156.417969 195.71875 156.304688 C 195.996094 156.1875 196.285156 156.128906 196.585938 156.128906 C 196.890625 156.128906 197.179688 156.1875 197.457031 156.304688 C 197.734375 156.417969 197.980469 156.582031 198.195312 156.796875 C 198.40625 157.007812 198.574219 157.253906 198.6875 157.535156 C 198.804688 157.8125 198.859375 158.101562 198.859375 158.402344 L 198.859375 167.496094 C 198.859375 167.800781 198.917969 168.089844 199.035156 168.367188 C 199.148438 168.644531 199.3125 168.890625 199.527344 169.105469 C 199.738281 169.320312 199.984375 169.484375 200.265625 169.597656 C 200.542969 169.714844 200.832031 169.769531 201.132812 169.769531 C 201.4375 169.769531 201.726562 169.714844 202.003906 169.597656 C 202.28125 169.484375 202.527344 169.320312 202.742188 169.105469 C 202.953125 168.890625 203.121094 168.644531 203.234375 168.367188 C 203.351562 168.089844 203.40625 167.800781 203.40625 167.496094 L 203.40625 160.675781 C 203.40625 160.375 203.464844 160.085938 203.582031 159.808594 C 203.695312 159.527344 203.859375 159.28125 204.074219 159.070312 C 204.285156 158.855469 204.53125 158.691406 204.8125 158.578125 C 205.089844 158.460938 205.378906 158.402344 205.679688 158.402344 C 205.984375 158.402344 206.273438 158.460938 206.550781 158.578125 C 206.828125 158.691406 207.074219 158.855469 207.289062 159.070312 C 207.5 159.28125 207.667969 159.527344 207.78125 159.808594 C 207.898438 160.085938 207.953125 160.375 207.953125 160.675781 Z M 207.953125 181.136719 "/>
</g>
</svg>
